<svg width="168" height="85" viewBox="0 0 84 85" fill="none" xmlns="http://www.w3.org/2000/svg">
<path d="M55.0594 14.3404C53.8732 14.4843 52.7899 15.4984 52.5653 16.6697C50.8861 17.0082 49.1993 17.4684 47.5312 18.042C46.702 17.1085 45.3926 16.7404 44.219 17.227C41.1146 18.5137 38.0754 20.189 35.1864 22.2061C34.1867 22.9037 33.7022 24.3138 34.0887 25.4779C32.3936 26.8101 30.7391 28.2797 29.1596 29.8592C27.5558 31.463 26.0649 33.1415 24.7174 34.8565C23.5548 34.4705 22.1452 34.9514 21.4474 35.9504C19.5071 38.7272 17.8823 41.6423 16.6178 44.6144C16.1202 45.7838 16.4739 47.0974 17.4048 47.9324C16.8092 49.6132 16.3298 51.3137 15.9753 53.0069C14.7988 53.2232 13.7744 54.3029 13.6218 55.4914C12.5588 63.7825 14.4666 71.7347 18.4825 75.7507C24.4584 81.7266 41.3391 70.1959 55.4177 56.1173C61.5907 49.9442 66.8044 43.8405 70.4954 38.4659C71.3534 37.2165 69.4199 35.8903 68.5635 37.139C64.9523 42.3974 59.8337 48.387 53.7605 54.4601C46.3001 61.9205 38.7441 67.9993 32.4848 71.5765C26.4745 75.011 21.9748 75.9284 20.1398 74.0934C17.4656 71.4192 14.763 65.0209 15.9468 55.7896C16.0171 55.2424 16.4227 55.3216 16.7663 55.3711C20.2502 56.6828 23.6012 57.0834 26.727 56.5595C27.7114 56.3945 27.9696 55.1826 27.362 54.575L18.8861 46.0991C18.7357 45.9488 18.692 45.7262 18.7746 45.532C19.9757 42.7088 21.5214 39.9367 23.3687 37.2928C23.5889 37.0308 23.8434 36.9865 24.1321 37.1601C25.2686 38.035 26.4665 38.865 27.6927 39.6269C28.9795 40.4263 30.2166 38.4354 28.9295 37.6359C28.1681 37.163 27.4204 36.6601 26.6911 36.1379C27.9464 34.5541 29.331 33.0026 30.817 31.5166C32.2772 30.0564 33.8032 28.6964 35.3648 27.4578C40.0475 34.0742 41.7205 40.2214 42.2734 42.9779C40.6042 42.6529 37.7112 41.9377 34.2918 40.4491C32.9025 39.8443 31.9668 41.9934 33.3562 42.5981C39.0817 45.0906 43.3949 45.5392 43.5757 45.557C44.3096 45.6297 44.9269 45.0144 44.8576 44.2809C44.8221 43.9047 43.918 35.0898 36.7432 25.3617C36.6655 25.1486 36.5374 24.9729 36.3588 24.8346C36.2271 24.5636 36.2835 24.3281 36.5281 24.1279C39.2787 22.2074 42.1683 20.6141 45.1166 19.392C45.3098 19.3119 45.531 19.3564 45.68 19.5054L54.0559 27.8813C54.6634 28.4887 55.8754 28.2307 56.0404 27.2463C56.5592 24.1514 56.1717 20.8319 54.8888 17.3801C54.8103 17.0018 54.9615 16.764 55.3419 16.6671C62.8613 15.755 69.9472 17.3928 73.3938 20.8394C74.6447 22.0903 75.4155 24.9608 71.9844 31.5322C71.2924 32.8575 73.3893 33.9045 74.062 32.6171C77.3451 26.3291 77.6778 21.8089 75.051 19.1821C71.1143 15.2454 63.2672 13.3448 55.0594 14.3404V14.3404ZM18.2829 53.4254C18.5393 52.2113 18.8625 50.9923 19.2525 49.7801L23.9107 54.4382C22.1106 54.4261 20.228 54.0869 18.2829 53.4254ZM53.9188 24.4296L49.3889 19.8997C50.5792 19.5299 51.7752 19.2227 52.9663 18.9804C53.588 20.8627 53.9067 22.6857 53.9188 24.4296Z" fill="black"/>
</svg>
