<svg width="80" height="40" viewBox="0 0 80 40" fill="none" xmlns="http://www.w3.org/2000/svg">
<g clip-path="url(#clip0)">
<path d="M72.4858 0.104676C72.0582 0.0766683 71.6026 0.408558 71.4374 0.866513C70.8221 0.881487 70.1951 0.945167 69.5663 1.05615C69.3435 0.617843 68.9101 0.373543 68.4617 0.485235C67.2754 0.780523 66.0835 1.23791 64.9191 1.84463C64.5163 2.05442 64.2422 2.59021 64.2924 3.0897C63.5983 3.5059 62.9084 3.98067 62.2367 4.50542C61.5548 5.03823 60.907 5.6095 60.307 6.20597C59.9266 5.96514 59.3955 6.05735 59.0766 6.41114C58.19 7.3945 57.4042 8.45676 56.7408 9.56836C56.4797 10.0057 56.5074 10.5633 56.7733 10.9692C56.4402 11.6065 56.1464 12.2602 55.8972 12.9201C55.4676 12.9221 55.0279 13.2848 54.8868 13.755C53.9028 17.0351 53.9883 20.394 55.1048 22.3123C56.7662 25.1667 63.5505 21.7251 69.537 17.0479C72.1619 14.9971 74.4444 12.9045 76.1378 10.9966C76.5315 10.5531 75.9492 9.87539 75.5562 10.3188C73.8994 12.1855 71.6587 14.2387 69.0763 16.2563C65.9039 18.7348 62.7997 20.6469 60.3355 21.6403C57.9694 22.5939 56.3197 22.6382 55.8095 21.7617C55.066 20.4843 54.5867 17.6969 55.6823 14.0448C55.7473 13.8284 55.8841 13.8899 56.0013 13.935C57.1298 14.7195 58.2786 15.1254 59.4162 15.1405C59.7745 15.1453 59.9545 14.6733 59.7856 14.3831L57.4291 10.3345C57.3873 10.2627 57.3883 10.1694 57.4316 10.0968C58.0617 9.04087 58.8093 8.03074 59.6534 7.09445C59.7501 7.00439 59.8429 7.00495 59.9316 7.09623C60.2668 7.53318 60.627 7.95638 61.002 8.35407C61.3957 8.77134 61.9772 8.05514 61.5834 7.63779C61.3505 7.3909 61.1247 7.13292 60.9067 6.86839C61.4646 6.31833 62.0656 5.79077 62.6975 5.29709C63.3184 4.81199 63.9551 4.37221 64.5954 3.98424C65.7549 7.00402 65.8907 9.61493 65.8823 10.7714C65.3193 10.5183 64.3547 10.0184 63.2619 9.16692C62.8179 8.82098 62.3307 9.62318 62.7747 9.96907C64.6045 11.3948 66.0881 11.8901 66.1504 11.9104C66.4031 11.9932 66.6654 11.789 66.695 11.4869C66.7103 11.332 67.0411 7.69674 65.2343 3.23567C65.2227 3.14372 65.1906 3.06326 65.138 2.99426C65.1116 2.87498 65.1487 2.78369 65.2495 2.72041C66.358 2.14277 67.4913 1.7077 68.6179 1.42723C68.6918 1.40885 68.7663 1.44292 68.8077 1.51411L71.1364 5.51495C71.3053 5.80511 71.7504 5.78873 71.8809 5.40214C72.2911 4.18661 72.3992 2.81422 72.2021 1.32316C72.2024 1.16426 72.273 1.07898 72.4139 1.0674C75.1251 1.24484 77.4961 2.42336 78.4543 4.06966C78.8021 4.66717 78.8618 5.88562 77.1717 8.29711C76.8309 8.78345 77.4911 9.35994 77.8224 8.88754C79.4396 6.58 79.8893 4.77379 79.159 3.51908C78.0645 1.63867 75.4452 0.298402 72.4858 0.104676V0.104676ZM56.6777 13.2574C56.8573 12.7844 57.0606 12.3143 57.287 11.8517L58.5821 14.0768C57.95 13.9409 57.313 13.6667 56.6777 13.2574ZM71.3422 4.10726L70.0828 1.9435C70.5286 1.88031 70.9717 1.84287 71.4084 1.83137C71.4884 2.63882 71.4663 3.4002 71.3422 4.10726Z" fill="black" fill-opacity="0.05"/>
<path d="M32.5102 19.9263C32.0825 19.8983 31.627 20.2302 31.4618 20.6882C30.8464 20.7031 30.2195 20.7668 29.5907 20.8778C29.3678 20.4395 28.9345 20.1952 28.486 20.3069C27.2997 20.6022 26.1078 21.0596 24.9435 21.6663C24.5406 21.8761 24.2665 22.4119 24.3167 22.9114C23.6227 23.3276 22.9327 23.8023 22.2611 24.3271C21.5791 24.8599 20.9313 25.4312 20.3313 26.0276C19.9509 25.7868 19.4199 25.879 19.101 26.2328C18.2144 27.2162 17.4285 28.2784 16.7651 29.39C16.5041 29.8274 16.5318 30.385 16.7977 30.7908C16.4645 31.4281 16.1708 32.0819 15.9215 32.7417C15.4919 32.7438 15.0522 33.1065 14.9111 33.5767C13.9271 36.8568 14.0126 40.2157 15.1291 42.1339C16.7906 44.9884 23.5748 41.5467 29.5614 36.8695C32.1863 34.8187 34.4688 32.7262 36.1622 30.8182C36.5558 30.3747 35.9736 29.697 35.5805 30.1404C33.9238 32.0072 31.6831 34.0603 29.1006 36.078C25.9283 38.5565 22.8241 40.4685 20.3599 41.4619C17.9937 42.4156 16.344 42.4599 15.8339 41.5833C15.0904 40.306 14.611 37.5185 15.7067 33.8665C15.7717 33.65 15.9085 33.7116 16.0257 33.7566C17.1541 34.5411 18.3029 34.947 19.4406 34.9622C19.7988 34.967 19.9788 34.495 19.8099 34.2048L17.4534 30.1562C17.4116 30.0844 17.4126 29.9911 17.456 29.9184C18.0861 28.8625 18.8336 27.8524 19.6778 26.9161C19.7745 26.826 19.8672 26.8266 19.956 26.9179C20.2912 27.3548 20.6513 27.778 21.0264 28.1757C21.42 28.593 22.0015 27.8768 21.6078 27.4595C21.3749 27.2126 21.149 26.9546 20.931 26.69C21.4889 26.14 22.09 25.6124 22.7219 25.1187C23.3428 24.6336 23.9795 24.1939 24.6197 23.8059C25.7793 26.8257 25.9151 29.4366 25.9066 30.593C25.3436 30.34 24.379 29.84 23.2862 28.9886C22.8423 28.6426 22.3551 29.4448 22.7991 29.7907C24.6289 31.2164 26.1125 31.7117 26.1747 31.7321C26.4274 31.8149 26.6898 31.6106 26.7194 31.3086C26.7346 31.1536 27.0655 27.5184 25.2587 23.0573C25.247 22.9654 25.2149 22.8849 25.1623 22.8159C25.1359 22.6966 25.1731 22.6053 25.2738 22.5421C26.3824 21.9644 27.5157 21.5294 28.6423 21.2489C28.7161 21.2305 28.7906 21.2646 28.8321 21.3358L31.1607 25.3366C31.3296 25.6268 31.7748 25.6104 31.9052 25.2238C32.3155 24.0083 32.4235 22.6359 32.2265 21.1448C32.2268 20.9859 32.2974 20.9006 32.4383 20.8891C35.1494 21.0665 37.5204 22.245 38.4786 23.8913C38.8264 24.4888 38.8862 25.7073 37.1961 28.1188C36.8552 28.6051 37.5155 29.1816 37.8467 28.7092C39.4639 26.4017 39.9136 24.5954 39.1833 23.3407C38.0889 21.4603 35.4695 20.1201 32.5102 19.9263ZM16.7021 33.079C16.8816 32.606 17.085 32.1359 17.3113 31.6734L18.6064 33.8984C17.9744 33.7626 17.3374 33.4883 16.7021 33.079ZM31.3666 23.9289L30.1072 21.7652C30.5529 21.702 30.9961 21.6645 31.4327 21.653C31.5128 22.4605 31.4907 23.2219 31.3666 23.9289Z" fill="black" fill-opacity="0.05"/>
<path d="M32.5102 -20.0753C32.0825 -20.1033 31.627 -19.7714 31.4618 -19.3135C30.8464 -19.2985 30.2195 -19.2348 29.5907 -19.1238C29.3678 -19.5621 28.9345 -19.8064 28.486 -19.6948C27.2997 -19.3995 26.1078 -18.9421 24.9435 -18.3354C24.5406 -18.1256 24.2665 -17.5898 24.3167 -17.0903C23.6227 -16.6741 22.9327 -16.1993 22.2611 -15.6746C21.5791 -15.1418 20.9313 -14.5705 20.3313 -13.974C19.9509 -14.2148 19.4199 -14.1226 19.101 -13.7689C18.2144 -12.7855 17.4285 -11.7232 16.7651 -10.6116C16.5041 -10.1743 16.5318 -9.61666 16.7977 -9.21082C16.4645 -8.5735 16.1708 -7.91977 15.9215 -7.25991C15.4919 -7.25786 15.0522 -6.89516 14.9111 -6.42499C13.9271 -3.14486 14.0126 0.214033 15.1291 2.13228C16.7906 4.98676 23.5748 1.54508 29.5614 -3.13212C32.1863 -5.18293 34.4688 -7.27545 36.1622 -9.18341C36.5558 -9.62694 35.9736 -10.3046 35.5805 -9.86123C33.9238 -7.99448 31.6831 -5.94131 29.1006 -3.92368C25.9283 -1.44518 22.8241 0.466892 20.3599 1.46026C17.9937 2.41393 16.344 2.45823 15.8339 1.5817C15.0904 0.304346 14.611 -2.48313 15.7067 -6.13516C15.7717 -6.35164 15.9085 -6.29007 16.0257 -6.24504C17.1541 -5.46054 18.3029 -5.05462 19.4406 -5.03947C19.7988 -5.03468 19.9788 -5.50666 19.8099 -5.79687L17.4534 -9.84547C17.4116 -9.9173 17.4126 -10.0106 17.456 -10.0832C18.0861 -11.1391 18.8336 -12.1492 19.6778 -13.0855C19.7745 -13.1756 19.8672 -13.175 19.956 -13.0838C20.2912 -12.6468 20.6513 -12.2236 21.0264 -11.8259C21.42 -11.4086 22.0015 -12.1249 21.6078 -12.5422C21.3749 -12.7891 21.149 -13.0471 20.931 -13.3116C21.4889 -13.8617 22.09 -14.3892 22.7219 -14.8829C23.3428 -15.368 23.9795 -15.8078 24.6197 -16.1958C25.7793 -13.176 25.9151 -10.5651 25.9066 -9.40864C25.3436 -9.66165 24.379 -10.1616 23.2862 -11.0131C22.8423 -11.359 22.3551 -10.5568 22.7991 -10.2109C24.6289 -8.78522 26.1125 -8.28992 26.1747 -8.26957C26.4274 -8.18676 26.6898 -8.39103 26.7194 -8.6931C26.7346 -8.84802 27.0655 -12.4833 25.2587 -16.9443C25.247 -17.0363 25.2149 -17.1167 25.1623 -17.1857C25.1359 -17.305 25.1731 -17.3963 25.2738 -17.4596C26.3824 -18.0372 27.5157 -18.4723 28.6423 -18.7528C28.7161 -18.7711 28.7906 -18.7371 28.8321 -18.6659L31.1607 -14.665C31.3296 -14.3749 31.7748 -14.3913 31.9052 -14.7779C32.3155 -15.9934 32.4235 -17.3658 32.2265 -18.8568C32.2268 -19.0157 32.2974 -19.101 32.4383 -19.1126C35.1494 -18.9351 37.5204 -17.7566 38.4786 -16.1103C38.8264 -15.5128 38.8862 -14.2944 37.1961 -11.8829C36.8552 -11.3965 37.5155 -10.8201 37.8467 -11.2925C39.4639 -13.6 39.9136 -15.4062 39.1833 -16.6609C38.0889 -18.5413 35.4695 -19.8816 32.5102 -20.0753ZM16.7021 -6.92263C16.8816 -7.39563 17.085 -7.86574 17.3113 -8.32827L18.6064 -6.10324C17.9744 -6.23906 17.3374 -6.51332 16.7021 -6.92263ZM31.3666 -16.0727L30.1072 -18.2365C30.5529 -18.2997 30.9961 -18.3371 31.4327 -18.3486C31.5128 -17.5412 31.4907 -16.7798 31.3666 -16.0727Z" fill="black" fill-opacity="0.05"/>
</g>
<defs>
<clipPath id="clip0">
<rect width="80" height="40" fill="white"/>
</clipPath>
</defs>
</svg>
