<svg width="400" height="400" viewBox="0 0 400 400" xmlns="http://www.w3.org/2000/svg">
<g id="Logo">
<g id="Bread">
<path id="Vector" d="M262.834 90.4749C260.8 88.8811 257.593 88.7753 255.458 90.2228C252.373 88.1728 249.09 86.2972 245.662 84.6236C245.822 81.9283 244.382 79.363 241.844 78.3125C235.129 75.533 227.92 73.4476 220.418 72.1143C217.823 71.6524 214.926 73.0678 213.737 75.4388C209.108 74.8839 204.33 74.6011 199.5 74.6011C194.595 74.6011 189.749 74.888 185.066 75.4499C183.878 73.082 180.988 71.6618 178.393 72.1224C171.18 73.4016 164.238 75.3746 157.76 77.9858C155.211 79.013 153.743 81.5624 153.889 84.2628C150.409 85.9222 147.075 87.7893 143.944 89.8363C141.814 88.3681 138.597 88.4526 136.546 90.0366C122.243 101.089 113 116.166 113 128.448C113 146.724 156.444 154.905 199.5 154.905C218.379 154.905 235.684 153.544 249.547 150.969C252.769 150.371 251.841 145.386 248.622 145.986C235.059 148.505 218.073 149.837 199.5 149.837C176.684 149.837 155.835 147.578 140.794 143.476C126.352 139.538 118.068 134.06 118.068 128.448C118.068 120.27 123.72 106.353 139.645 94.0477C140.59 93.3186 141.089 94.0599 141.539 94.661C144.86 101.994 149.372 107.731 154.952 111.709C156.71 112.962 158.958 111.504 158.958 109.646V83.7245C158.958 83.2646 159.231 82.8575 159.655 82.6869C165.808 80.2064 172.411 78.3311 179.278 77.113C180.016 77.0491 180.472 77.3705 180.648 78.0773C181.048 81.1532 181.611 84.254 182.321 87.294C183.066 90.484 188.002 89.3315 187.257 86.1408C186.816 84.2533 186.441 82.3412 186.125 80.4274C190.466 79.9249 194.955 79.6698 199.5 79.6698C203.966 79.6698 208.379 79.9236 212.661 80.4176C209.704 97.6953 202.862 109.653 199.493 114.714C197.437 111.664 194.107 106.147 191.154 98.642C189.955 95.5929 185.238 97.4483 186.438 100.497C191.382 113.064 197.291 120.345 197.54 120.649C198.551 121.882 200.436 121.885 201.452 120.658C201.973 120.028 214.069 105.167 217.973 79.3201C218.181 78.8754 218.253 78.4108 218.192 77.9263C218.405 77.3107 218.851 77.0366 219.531 77.1046C226.674 78.374 233.529 80.3561 239.906 82.9957C240.324 83.1687 240.594 83.5748 240.594 84.0306V109.646C240.594 111.504 242.842 112.963 244.599 111.71C250.125 107.77 254.609 102.102 257.925 94.8621C258.384 94.1636 258.978 94.0312 259.708 94.4647C272.601 104.568 280.932 117.908 280.932 128.448C280.932 132.274 277.721 137.842 262.426 142.644C259.341 143.612 260.947 148.419 263.944 147.479C278.579 142.884 286 136.481 286 128.448C286 116.409 276.907 101.503 262.834 90.4749ZM146.833 94.0048C149.081 92.5404 151.439 91.1706 153.889 89.9133V104.159C151.156 101.388 148.795 97.9906 146.833 94.0048ZM245.662 104.158V90.3049C248.048 91.5595 250.346 92.9185 252.538 94.3694C250.611 98.1984 248.31 101.473 245.662 104.158Z" stroke="none"/>
<path id="Vector_2" d="M229.075 47.3192C229.075 51.3627 225.465 56.0611 224.077 57.5272C221.824 59.8911 225.474 63.4085 227.746 61.0237C228.007 60.7496 234.143 54.2317 234.143 47.3192C234.143 43.3158 232.092 41.1642 230.595 39.5926C229.301 38.2346 228.446 37.3379 228.446 35.3629C228.446 31.3207 232.055 26.6234 233.446 25.1542C235.701 22.7809 232.033 19.2888 229.775 21.6601C229.513 21.9341 223.378 28.451 223.378 35.3633C223.378 39.3666 225.428 41.5183 226.926 43.0898C228.22 44.4474 229.075 45.3445 229.075 47.3192Z" stroke="none"/>
<path id="Vector_3" d="M170.539 47.3192C170.539 51.3627 166.929 56.0611 165.542 57.5272C163.289 59.8911 166.939 63.4085 169.211 61.0237C169.472 60.7496 175.607 54.2317 175.607 47.3192C175.607 43.3158 173.557 41.1642 172.059 39.5926C170.765 38.2346 169.911 37.3379 169.911 35.3629C169.911 31.3207 173.519 26.6234 174.91 25.1542C177.165 22.7809 173.498 19.2888 171.239 21.6601C170.978 21.9341 164.842 28.451 164.842 35.3633C164.842 39.3666 166.893 41.5183 168.39 43.0898C169.684 44.4474 170.539 45.3445 170.539 47.3192Z" stroke="none"/>
<path id="Vector_4" d="M199.627 36.5459C199.627 40.5894 196.018 45.2878 194.63 46.7539C192.377 49.1178 196.027 52.6352 198.299 50.2504C198.56 49.9763 204.696 43.4584 204.696 36.5459C204.696 32.5425 202.645 30.3908 201.148 28.8193C199.854 27.4613 198.999 26.5646 198.999 24.5896C198.999 20.5474 202.608 15.8501 203.999 14.3809C206.254 12.0076 202.586 8.51513 200.328 10.8868C200.066 11.1608 193.931 17.6777 193.931 24.5899C193.931 28.5933 195.981 30.745 197.479 32.3165C198.773 33.6738 199.627 34.5709 199.627 36.5459Z" stroke="none"/>
</g>
<g id="Circles">
<path id="Ellipse 4" d="M122.861 192.639C126.226 183.605 131.171 175.242 137.466 167.942" fill="none" stroke-width="3.5" stroke-linecap="round"/>
<path id="Ellipse 5" d="M270.22 260.105C263.144 272.993 252.703 283.719 240.011 291.14C227.319 298.561 212.851 302.4 198.149 302.246C183.447 302.092 169.063 297.951 156.529 290.266C143.995 282.581 133.781 271.638 126.976 258.605" fill="none" stroke-width="3.5" stroke-linecap="round"/>
<path id="Ellipse 6" d="M261.937 169.615C269.883 179.346 275.463 190.788 278.24 203.041" fill="none" stroke-width="3.5" stroke-linecap="round"/>
<path id="Ellipse 4_2" d="M78.1098 196.997C81.9742 177.534 90.4807 159.292 102.906 143.821" fill="none" stroke-width="3.5" stroke-linecap="round"/>
<path id="Ellipse 5_2" d="M314.24 264.707C305.397 288.023 289.689 308.109 269.19 322.311C248.692 336.513 224.368 344.162 199.43 344.249C174.493 344.336 150.116 336.857 129.519 322.798C108.922 308.74 93.0736 288.765 84.0678 265.51" fill="none" stroke-width="3.5" stroke-linecap="round"/>
<path id="Ellipse 6_2" d="M294.471 143.052C308.503 160.238 317.635 180.893 320.904 202.837" fill="none" stroke-width="3.5" stroke-linecap="round"/>
</g>
<path id="Baking Bread" d="M28.788 224.324H32.632C37.7573 224.324 40.32 222.009 40.32 217.38C40.32 215.933 40.0927 214.755 39.638 213.846C39.2247 212.895 38.6667 212.172 37.964 211.676C37.2613 211.139 36.4347 210.767 35.484 210.56C34.5747 210.353 33.6033 210.25 32.57 210.25C31.95 210.25 31.3093 210.271 30.648 210.312C30.028 210.353 29.408 210.415 28.788 210.498V224.324ZM28.788 228.788V244.288C29.5733 244.412 30.338 244.515 31.082 244.598C31.8673 244.681 32.632 244.722 33.376 244.722C34.5333 244.722 35.6287 244.598 36.662 244.35C37.6953 244.102 38.584 243.689 39.328 243.11C40.1133 242.531 40.7127 241.746 41.126 240.754C41.5807 239.721 41.808 238.46 41.808 236.972C41.808 234.409 41.1053 232.405 39.7 230.958C38.336 229.511 36.1867 228.788 33.252 228.788H28.788ZM23.208 206.654C24.6547 206.323 26.122 206.075 27.61 205.91C29.1393 205.703 30.648 205.6 32.136 205.6C33.996 205.6 35.7527 205.786 37.406 206.158C39.1007 206.489 40.5887 207.088 41.87 207.956C43.1513 208.783 44.164 209.899 44.908 211.304C45.6933 212.668 46.086 214.383 46.086 216.45C46.086 219.013 45.5487 221.121 44.474 222.774C43.3993 224.386 42.0147 225.585 40.32 226.37C42.428 227.197 44.164 228.457 45.528 230.152C46.892 231.847 47.574 234.182 47.574 237.158C47.574 239.39 47.202 241.271 46.458 242.8C45.7553 244.329 44.7427 245.59 43.42 246.582C42.0973 247.533 40.506 248.235 38.646 248.69C36.8273 249.103 34.8227 249.31 32.632 249.31C31.1853 249.31 29.6767 249.227 28.106 249.062C26.5353 248.897 24.9027 248.649 23.208 248.318V206.654ZM60.624 217.132C61.6987 216.677 62.8354 216.326 64.034 216.078C65.2327 215.789 66.5347 215.644 67.94 215.644C70.8334 215.644 73.1894 216.553 75.008 218.372C76.8267 220.149 77.736 222.939 77.736 226.742V248.318C76.248 248.731 74.7187 249.062 73.148 249.31C71.6187 249.558 70.11 249.682 68.622 249.682C67.134 249.682 65.7287 249.496 64.406 249.124C63.1247 248.752 61.988 248.153 60.996 247.326C60.0454 246.499 59.2807 245.466 58.702 244.226C58.1234 242.945 57.834 241.395 57.834 239.576C57.834 237.881 58.082 236.414 58.578 235.174C59.1154 233.893 59.8387 232.839 60.748 232.012C61.6574 231.144 62.732 230.503 63.972 230.09C65.212 229.635 66.5554 229.408 68.002 229.408C69.366 229.408 70.8747 229.573 72.528 229.904V226.928C72.528 224.531 72.0527 222.857 71.102 221.906C70.1927 220.955 68.87 220.48 67.134 220.48C66.1834 220.48 65.274 220.583 64.406 220.79C63.5794 220.955 62.6907 221.245 61.74 221.658L60.624 217.132ZM63.166 239.514C63.166 241.415 63.662 242.821 64.654 243.73C65.646 244.639 67.0514 245.094 68.87 245.094C69.986 245.094 71.2054 244.949 72.528 244.66V234.306C71.288 233.975 70.0687 233.81 68.87 233.81C68.0847 233.81 67.3407 233.913 66.638 234.12C65.9354 234.285 65.3154 234.595 64.778 235.05C64.282 235.463 63.8894 236.042 63.6 236.786C63.3107 237.489 63.166 238.398 63.166 239.514ZM112.121 216.45C110.385 219.426 108.711 222.154 107.099 224.634C105.528 227.073 103.958 229.367 102.387 231.516C103.379 232.673 104.392 233.975 105.425 235.422C106.458 236.869 107.45 238.377 108.401 239.948C109.352 241.477 110.24 243.027 111.067 244.598C111.894 246.127 112.596 247.595 113.175 249H107.347C106.727 247.636 106.004 246.21 105.177 244.722C104.35 243.234 103.482 241.787 102.573 240.382C101.664 238.935 100.754 237.571 99.8448 236.29C98.9355 235.009 98.0882 233.934 97.3028 233.066V249H91.9708V201.818L97.3028 200.888V230.462C98.0468 229.47 98.8322 228.354 99.6588 227.114C100.527 225.874 101.374 224.634 102.201 223.394C103.028 222.113 103.813 220.873 104.557 219.674C105.301 218.475 105.921 217.401 106.417 216.45H112.121ZM128.722 249H123.39V216.45H128.722V249ZM126.056 210.684C125.105 210.684 124.278 210.374 123.576 209.754C122.914 209.093 122.584 208.225 122.584 207.15C122.584 206.075 122.914 205.228 123.576 204.608C124.278 203.947 125.105 203.616 126.056 203.616C127.006 203.616 127.812 203.947 128.474 204.608C129.176 205.228 129.528 206.075 129.528 207.15C129.528 208.225 129.176 209.093 128.474 209.754C127.812 210.374 127.006 210.684 126.056 210.684ZM143.365 217.38C144.895 216.925 146.548 216.553 148.325 216.264C150.103 215.933 151.735 215.768 153.223 215.768C154.835 215.768 156.303 215.995 157.625 216.45C158.948 216.863 160.064 217.587 160.973 218.62C161.924 219.653 162.647 221.059 163.143 222.836C163.681 224.572 163.949 226.742 163.949 229.346V249H158.617V229.78C158.617 226.556 158.204 224.2 157.377 222.712C156.551 221.224 155.001 220.48 152.727 220.48C151.529 220.48 150.185 220.687 148.697 221.1V249H143.365V217.38ZM197.58 248.07C197.58 250.385 197.27 252.327 196.65 253.898C196.071 255.51 195.265 256.812 194.232 257.804C193.198 258.796 191.979 259.519 190.574 259.974C189.21 260.429 187.742 260.656 186.172 260.656C184.849 260.656 183.526 260.511 182.204 260.222C180.881 259.933 179.662 259.499 178.546 258.92L179.662 254.456C180.406 254.869 181.315 255.241 182.39 255.572C183.464 255.903 184.58 256.068 185.738 256.068C187.763 256.068 189.354 255.489 190.512 254.332C191.669 253.175 192.248 251.191 192.248 248.38V246.83C191.586 247.119 190.884 247.367 190.14 247.574C189.396 247.739 188.548 247.822 187.598 247.822C183.712 247.822 180.86 246.499 179.042 243.854C177.264 241.167 176.376 237.385 176.376 232.508C176.376 229.904 176.603 227.569 177.058 225.502C177.554 223.394 178.298 221.617 179.29 220.17C180.323 218.682 181.646 217.566 183.258 216.822C184.87 216.037 186.833 215.644 189.148 215.644C190.677 215.644 192.165 215.809 193.612 216.14C195.1 216.429 196.422 216.822 197.58 217.318V248.07ZM192.248 220.79C191.669 220.625 191.111 220.521 190.574 220.48C190.036 220.397 189.54 220.356 189.086 220.356C186.606 220.356 184.787 221.307 183.63 223.208C182.514 225.109 181.956 228.209 181.956 232.508C181.956 236.393 182.514 239.142 183.63 240.754C184.746 242.325 186.337 243.11 188.404 243.11C189.106 243.11 189.768 243.027 190.388 242.862C191.049 242.697 191.669 242.469 192.248 242.18V220.79ZM235.158 224.324H239.002C244.128 224.324 246.69 222.009 246.69 217.38C246.69 215.933 246.463 214.755 246.008 213.846C245.595 212.895 245.037 212.172 244.334 211.676C243.632 211.139 242.805 210.767 241.854 210.56C240.945 210.353 239.974 210.25 238.94 210.25C238.32 210.25 237.68 210.271 237.018 210.312C236.398 210.353 235.778 210.415 235.158 210.498V224.324ZM235.158 228.788V244.288C235.944 244.412 236.708 244.515 237.452 244.598C238.238 244.681 239.002 244.722 239.746 244.722C240.904 244.722 241.999 244.598 243.032 244.35C244.066 244.102 244.954 243.689 245.698 243.11C246.484 242.531 247.083 241.746 247.496 240.754C247.951 239.721 248.178 238.46 248.178 236.972C248.178 234.409 247.476 232.405 246.07 230.958C244.706 229.511 242.557 228.788 239.622 228.788H235.158ZM229.578 206.654C231.025 206.323 232.492 206.075 233.98 205.91C235.51 205.703 237.018 205.6 238.506 205.6C240.366 205.6 242.123 205.786 243.776 206.158C245.471 206.489 246.959 207.088 248.24 207.956C249.522 208.783 250.534 209.899 251.278 211.304C252.064 212.668 252.456 214.383 252.456 216.45C252.456 219.013 251.919 221.121 250.844 222.774C249.77 224.386 248.385 225.585 246.69 226.37C248.798 227.197 250.534 228.457 251.898 230.152C253.262 231.847 253.944 234.182 253.944 237.158C253.944 239.39 253.572 241.271 252.828 242.8C252.126 244.329 251.113 245.59 249.79 246.582C248.468 247.533 246.876 248.235 245.016 248.69C243.198 249.103 241.193 249.31 239.002 249.31C237.556 249.31 236.047 249.227 234.476 249.062C232.906 248.897 231.273 248.649 229.578 248.318V206.654ZM280.572 221.286C279.25 220.707 277.762 220.418 276.108 220.418C274.579 220.418 273.153 220.687 271.83 221.224V249H266.498V217.876C267.697 217.297 269.061 216.822 270.59 216.45C272.161 216.037 273.876 215.83 275.736 215.83C276.728 215.83 277.72 215.892 278.712 216.016C279.704 216.14 280.634 216.367 281.502 216.698L280.572 221.286ZM294.855 234.306C294.896 235.877 295.041 237.323 295.289 238.646C295.537 239.927 295.929 241.064 296.467 242.056C297.045 243.007 297.789 243.751 298.699 244.288C299.649 244.825 300.848 245.094 302.295 245.094C303.493 245.094 304.589 244.929 305.581 244.598C306.614 244.226 307.358 243.916 307.813 243.668L308.805 247.946C308.267 248.318 307.358 248.711 306.077 249.124C304.837 249.579 303.349 249.806 301.613 249.806C299.339 249.806 297.417 249.393 295.847 248.566C294.317 247.739 293.057 246.582 292.065 245.094C291.114 243.606 290.432 241.829 290.019 239.762C289.605 237.695 289.399 235.422 289.399 232.942C289.399 226.949 290.391 222.567 292.375 219.798C294.359 217.029 296.983 215.644 300.249 215.644C303.927 215.644 306.531 217.029 308.061 219.798C309.59 222.567 310.355 226.453 310.355 231.454C310.355 231.909 310.355 232.384 310.355 232.88C310.355 233.335 310.334 233.81 310.293 234.306H294.855ZM300.249 220.17C298.471 220.17 297.169 221.059 296.343 222.836C295.557 224.613 295.082 226.99 294.917 229.966H304.775C304.775 226.949 304.465 224.572 303.845 222.836C303.225 221.059 302.026 220.17 300.249 220.17ZM323.657 217.132C324.731 216.677 325.868 216.326 327.067 216.078C328.265 215.789 329.567 215.644 330.973 215.644C333.866 215.644 336.222 216.553 338.041 218.372C339.859 220.149 340.769 222.939 340.769 226.742V248.318C339.281 248.731 337.751 249.062 336.181 249.31C334.651 249.558 333.143 249.682 331.655 249.682C330.167 249.682 328.761 249.496 327.439 249.124C326.157 248.752 325.021 248.153 324.029 247.326C323.078 246.499 322.313 245.466 321.735 244.226C321.156 242.945 320.867 241.395 320.867 239.576C320.867 237.881 321.115 236.414 321.611 235.174C322.148 233.893 322.871 232.839 323.781 232.012C324.69 231.144 325.765 230.503 327.005 230.09C328.245 229.635 329.588 229.408 331.035 229.408C332.399 229.408 333.907 229.573 335.561 229.904V226.928C335.561 224.531 335.085 222.857 334.135 221.906C333.225 220.955 331.903 220.48 330.167 220.48C329.216 220.48 328.307 220.583 327.439 220.79C326.612 220.955 325.723 221.245 324.773 221.658L323.657 217.132ZM326.199 239.514C326.199 241.415 326.695 242.821 327.687 243.73C328.679 244.639 330.084 245.094 331.903 245.094C333.019 245.094 334.238 244.949 335.561 244.66V234.306C334.321 233.975 333.101 233.81 331.903 233.81C331.117 233.81 330.373 233.913 329.671 234.12C328.968 234.285 328.348 234.595 327.811 235.05C327.315 235.463 326.922 236.042 326.633 236.786C326.343 237.489 326.199 238.398 326.199 239.514ZM369.015 221.348C367.817 220.687 366.535 220.356 365.171 220.356C364.138 220.356 363.229 220.563 362.443 220.976C361.658 221.389 360.976 222.071 360.397 223.022C359.86 223.973 359.447 225.233 359.157 226.804C358.868 228.375 358.723 230.317 358.723 232.632C358.723 237.096 359.302 240.299 360.459 242.242C361.658 244.143 363.456 245.094 365.853 245.094C366.308 245.094 366.804 245.073 367.341 245.032C367.879 244.949 368.437 244.825 369.015 244.66V221.348ZM369.015 201.818L374.347 200.888V248.132C373.19 248.628 371.867 249.021 370.379 249.31C368.891 249.641 367.383 249.806 365.853 249.806C361.389 249.806 358.145 248.38 356.119 245.528C354.135 242.676 353.143 238.377 353.143 232.632C353.143 230.028 353.35 227.693 353.763 225.626C354.218 223.518 354.9 221.741 355.809 220.294C356.76 218.806 357.959 217.669 359.405 216.884C360.852 216.057 362.567 215.644 364.551 215.644C365.502 215.644 366.308 215.747 366.969 215.954C367.672 216.119 368.354 216.367 369.015 216.698V201.818Z" stroke="none"/>
</g>
</svg>
